<?xml version="1.0" encoding="iso-8859-1"?>
<!-- Uploaded to: SVG Repo, www.svgrepo.com, Generator: SVG Repo Mixer Tools -->
<!DOCTYPE svg PUBLIC "-//W3C//DTD SVG 1.1//EN" "http://www.w3.org/Graphics/SVG/1.1/DTD/svg11.dtd">
<svg fill="#fff" version="1.1" id="Capa_1" xmlns="http://www.w3.org/2000/svg" xmlns:xlink="http://www.w3.org/1999/xlink"
	 width="800px" height="800px" viewBox="0 0 604.315 604.315"
	 xml:space="preserve">
<g>
	<g>
		<path d="M133.857,456.434h84.788l220.933,138.479c9.291,5.823,19.957,8.902,30.844,8.902c15.043,0,29.336-5.739,40.246-16.158
			c5.57-5.32,9.959-11.583,13.043-18.615c3.242-7.388,4.887-15.258,4.887-23.392V302.292v-0.271V58.665
			c0-8.134-1.645-16.004-4.887-23.393c-3.084-7.031-7.473-13.293-13.043-18.613C499.758,6.239,485.465,0.5,470.422,0.5
			c-10.885,0-21.551,3.078-30.842,8.901L219.079,147.61h-85.221c-32.059,0-58.14,26.081-58.14,58.14v192.543
			C75.717,430.353,101.799,456.434,133.857,456.434z M118.557,205.75c0-8.45,6.85-15.3,15.3-15.3h93.139
			c2.874,0,5.69-0.81,8.125-2.336L462.333,45.7c2.59-1.623,5.375-2.36,8.09-2.36c7.971,0,15.334,6.355,15.334,15.325v243.357v0.271
			V545.65c0,8.971-7.363,15.324-15.334,15.324c-2.715,0-5.502-0.737-8.092-2.36L234.689,415.93
			c-2.435-1.526-5.251-2.336-8.125-2.336h-92.706c-8.45,0-15.3-6.85-15.3-15.3V205.75z"/>
		<path d="M470.422,604.315c-10.98,0-21.737-3.104-31.109-8.979L218.501,456.934h-84.644c-32.334,0-58.64-26.306-58.64-58.641
			V205.75c0-32.334,26.306-58.64,58.64-58.64h85.078L439.315,8.977C448.685,3.104,459.442,0,470.422,0
			c15.172,0,29.588,5.788,40.592,16.297c5.619,5.367,10.045,11.683,13.155,18.774c3.271,7.453,4.929,15.391,4.929,23.593V545.65
			c0,8.202-1.658,16.141-4.929,23.593c-3.11,7.092-7.536,13.408-13.155,18.775C500.009,598.528,485.593,604.315,470.422,604.315z
			 M133.857,148.11c-31.783,0-57.64,25.857-57.64,57.64v192.543c0,31.783,25.857,57.641,57.64,57.641h84.932l0.122,0.076
			l220.933,138.479c9.212,5.774,19.786,8.826,30.578,8.826c14.913,0,29.083-5.689,39.9-16.02
			c5.523-5.275,9.874-11.484,12.931-18.455c3.215-7.324,4.845-15.127,4.845-23.19V58.665c0-8.063-1.63-15.866-4.845-23.192
			c-3.057-6.969-7.407-13.178-12.931-18.452C499.506,6.689,485.335,1,470.422,1c-10.792,0-21.365,3.051-30.576,8.825L219.222,148.11
			H133.857z M470.422,561.475c-2.924,0-5.813-0.843-8.357-2.437L234.423,416.354c-2.358-1.479-5.076-2.26-7.86-2.26h-92.706
			c-8.712,0-15.8-7.088-15.8-15.8V205.75c0-8.712,7.088-15.8,15.8-15.8h93.139c2.784,0,5.501-0.781,7.86-2.26L462.067,45.276
			c2.545-1.594,5.434-2.437,8.355-2.437c8.73,0,15.834,7.099,15.834,15.825V545.65C486.256,554.376,479.153,561.475,470.422,561.475
			z M133.857,190.95c-8.161,0-14.8,6.639-14.8,14.8v192.544c0,8.16,6.639,14.8,14.8,14.8h92.706c2.972,0,5.874,0.834,8.391,2.412
			L462.596,558.19c2.384,1.494,5.091,2.284,7.826,2.284c8.18,0,14.834-6.65,14.834-14.824V58.665
			c0-8.174-6.654-14.825-14.834-14.825c-2.733,0-5.439,0.79-7.824,2.284L235.387,188.538c-2.518,1.578-5.419,2.412-8.391,2.412
			H133.857z"/>
	</g>
</g>
</svg>